# Blender v2.78 (sub 0) OBJ File: 'untitled.blend'
# www.blender.org
mtllib Coin.mtl
o Coin_Cylinder.003
v 0.000001 -0.100000 -1.750001
v 0.000001 0.100000 -1.750001
v 0.171531 -0.100000 -1.741574
v 0.171531 0.100000 -1.741574
v 0.341409 -0.100000 -1.716375
v 0.341409 0.100000 -1.716375
v 0.507999 -0.100000 -1.674646
v 0.507999 0.100000 -1.674646
v 0.669697 -0.100000 -1.616790
v 0.669697 0.100000 -1.616790
v 0.824945 -0.100000 -1.543363
v 0.824945 0.100000 -1.543363
v 0.972249 -0.100000 -1.455072
v 0.972249 0.100000 -1.455072
v 1.110189 -0.100000 -1.352769
v 1.110189 0.100000 -1.352769
v 1.237438 -0.100000 -1.237437
v 1.237438 0.100000 -1.237437
v 1.352769 -0.100000 -1.110189
v 1.352769 0.100000 -1.110189
v 1.455073 -0.100000 -0.972248
v 1.455073 0.100000 -0.972248
v 1.543363 -0.100000 -0.824945
v 1.543363 0.100000 -0.824945
v 1.616790 -0.100000 -0.669697
v 1.616790 0.100000 -0.669697
v 1.674646 -0.100000 -0.507999
v 1.674646 0.100000 -0.507999
v 1.716375 -0.100000 -0.341408
v 1.716375 0.100000 -0.341408
v 1.741574 -0.100000 -0.171530
v 1.741574 0.100000 -0.171530
v 1.750001 -0.100000 -0.000000
v 1.750001 0.100000 -0.000000
v 1.741574 -0.100000 0.171530
v 1.741574 0.100000 0.171530
v 1.716375 -0.100000 0.341408
v 1.716375 0.100000 0.341408
v 1.674646 -0.100000 0.507998
v 1.674646 0.100000 0.507998
v 1.616790 -0.100000 0.669696
v 1.616790 0.100000 0.669696
v 1.543363 -0.100000 0.824944
v 1.543363 0.100000 0.824944
v 1.455072 -0.100000 0.972248
v 1.455072 0.100000 0.972248
v 1.352769 -0.100000 1.110188
v 1.352769 0.100000 1.110188
v 1.237437 -0.100000 1.237437
v 1.237437 0.100000 1.237437
v 1.110188 -0.100000 1.352768
v 1.110188 0.100000 1.352768
v 0.972248 -0.100000 1.455072
v 0.972248 0.100000 1.455072
v 0.824944 -0.100000 1.543362
v 0.824944 0.100000 1.543362
v 0.669696 -0.100000 1.616789
v 0.669696 0.100000 1.616789
v 0.507998 -0.100000 1.674645
v 0.507998 0.100000 1.674645
v 0.341408 -0.100000 1.716374
v 0.341408 0.100000 1.716374
v 0.171529 -0.100000 1.741573
v 0.171529 0.100000 1.741573
v -0.000001 -0.100000 1.749999
v -0.000001 0.100000 1.749999
v -0.171531 -0.100000 1.741573
v -0.171531 0.100000 1.741573
v -0.341409 -0.100000 1.716373
v -0.341409 0.100000 1.716373
v -0.507999 -0.100000 1.674644
v -0.507999 0.100000 1.674644
v -0.669697 -0.100000 1.616788
v -0.669697 0.100000 1.616788
v -0.824945 -0.100000 1.543361
v -0.824945 0.100000 1.543361
v -0.972248 -0.100000 1.455070
v -0.972248 0.100000 1.455070
v -1.110189 -0.100000 1.352767
v -1.110189 0.100000 1.352767
v -1.237437 -0.100000 1.237435
v -1.237437 0.100000 1.237435
v -1.352769 -0.100000 1.110187
v -1.352769 0.100000 1.110187
v -1.455072 -0.100000 0.972246
v -1.455072 0.100000 0.972246
v -1.543362 -0.100000 0.824943
v -1.543362 0.100000 0.824943
v -1.616789 -0.100000 0.669695
v -1.616789 0.100000 0.669695
v -1.674645 -0.100000 0.507997
v -1.674645 0.100000 0.507997
v -1.716373 -0.100000 0.341408
v -1.716373 0.100000 0.341408
v -1.741572 -0.100000 0.171530
v -1.741572 0.100000 0.171530
v -1.749999 -0.100000 0.000000
v -1.749999 0.100000 0.000000
v -1.741572 -0.100000 -0.171529
v -1.741572 0.100000 -0.171529
v -1.716373 -0.100000 -0.341407
v -1.716373 0.100000 -0.341407
v -1.674645 -0.100000 -0.507997
v -1.674645 0.100000 -0.507997
v -1.616789 -0.100000 -0.669694
v -1.616789 0.100000 -0.669694
v -1.543362 -0.100000 -0.824943
v -1.543362 0.100000 -0.824943
v -1.455073 -0.100000 -0.972246
v -1.455073 0.100000 -0.972246
v -1.352769 -0.100000 -1.110186
v -1.352769 0.100000 -1.110186
v -1.237439 -0.100000 -1.237435
v -1.237439 0.100000 -1.237435
v -1.110190 -0.100000 -1.352766
v -1.110190 0.100000 -1.352766
v -0.972251 -0.100000 -1.455070
v -0.972251 0.100000 -1.455070
v -0.824948 -0.100000 -1.543361
v -0.824948 0.100000 -1.543361
v -0.669700 -0.100000 -1.616788
v -0.669700 0.100000 -1.616788
v -0.508002 -0.100000 -1.674645
v -0.508002 0.100000 -1.674645
v -0.341413 -0.100000 -1.716374
v -0.341413 0.100000 -1.716374
v -0.171535 -0.100000 -1.741573
v -0.171535 0.100000 -1.741573
vt 0.7500 1.0000
vt 0.7745 0.9976
vt 0.7500 1.0000
vt 0.7745 0.9976
vt 0.7988 0.9904
vt 0.7988 0.9904
vt 0.8226 0.9785
vt 0.8226 0.9785
vt 0.8457 0.9619
vt 0.8457 0.9619
vt 0.8678 0.9410
vt 0.8678 0.9410
vt 0.8889 0.9157
vt 0.8889 0.9157
vt 0.9086 0.8865
vt 0.9086 0.8865
vt 0.9268 0.8536
vt 0.9268 0.8536
vt 0.9433 0.8172
vt 0.9433 0.8172
vt 0.9579 0.7778
vt 0.9579 0.7778
vt 0.9705 0.7357
vt 0.9705 0.7357
vt 0.9810 0.6913
vt 0.9810 0.6913
vt 0.9892 0.6451
vt 0.9892 0.6451
vt 0.9952 0.5975
vt 0.9952 0.5975
vt 0.9988 0.5490
vt 0.9988 0.5490
vt 1.0000 0.5000
vt 1.0000 0.5000
vt 0.9988 0.4510
vt 0.9988 0.4510
vt 0.9952 0.4025
vt 0.9952 0.4025
vt 0.9892 0.3549
vt 0.9892 0.3549
vt 0.9810 0.3087
vt 0.9810 0.3087
vt 0.9705 0.2643
vt 0.9705 0.2643
vt 0.9579 0.2222
vt 0.9579 0.2222
vt 0.9433 0.1828
vt 0.9433 0.1828
vt 0.9268 0.1464
vt 0.9268 0.1464
vt 0.9086 0.1135
vt 0.9086 0.1135
vt 0.8889 0.0843
vt 0.8889 0.0843
vt 0.8678 0.0590
vt 0.8678 0.0590
vt 0.8457 0.0381
vt 0.8457 0.0381
vt 0.8226 0.0215
vt 0.8226 0.0215
vt 0.7988 0.0096
vt 0.7988 0.0096
vt 0.7745 0.0024
vt 0.7745 0.0024
vt 0.7500 0.0000
vt 0.7500 0.0000
vt 0.7255 0.0024
vt 0.7255 0.0024
vt 0.7012 0.0096
vt 0.7012 0.0096
vt 0.6774 0.0215
vt 0.6774 0.0215
vt 0.6543 0.0381
vt 0.6543 0.0381
vt 0.6322 0.0590
vt 0.6322 0.0590
vt 0.6111 0.0843
vt 0.6111 0.0843
vt 0.5914 0.1135
vt 0.5914 0.1135
vt 0.5732 0.1464
vt 0.5732 0.1464
vt 0.5567 0.1828
vt 0.5567 0.1828
vt 0.5421 0.2222
vt 0.5421 0.2222
vt 0.5295 0.2643
vt 0.5295 0.2643
vt 0.5190 0.3087
vt 0.5190 0.3087
vt 0.5108 0.3549
vt 0.5108 0.3549
vt 0.5048 0.4025
vt 0.5048 0.4025
vt 0.5012 0.4510
vt 0.5012 0.4510
vt 0.5000 0.5000
vt 0.5000 0.5000
vt 0.5012 0.5490
vt 0.5012 0.5490
vt 0.5048 0.5975
vt 0.5048 0.5975
vt 0.5108 0.6451
vt 0.5108 0.6451
vt 0.5190 0.6913
vt 0.5190 0.6913
vt 0.5295 0.7357
vt 0.5295 0.7357
vt 0.5421 0.7778
vt 0.5421 0.7778
vt 0.5567 0.8172
vt 0.5567 0.8172
vt 0.5732 0.8536
vt 0.5732 0.8536
vt 0.5914 0.8865
vt 0.5914 0.8865
vt 0.6111 0.9157
vt 0.6111 0.9157
vt 0.6322 0.9410
vt 0.6322 0.9410
vt 0.6543 0.9619
vt 0.6543 0.9619
vt 0.6774 0.9785
vt 0.6774 0.9785
vt 0.7012 0.9904
vt 0.2012 0.0096
vt 0.4579 0.7778
vt 0.2988 0.9904
vt 0.7012 0.9904
vt 0.7255 0.9976
vt 0.7255 0.9976
vt 0.7255 0.0024
vt 0.9988 0.4510
vt 0.5012 0.5490
vt 0.2745 0.9976
vt 0.2012 0.9904
vt 0.2500 1.0000
vt 0.2255 0.9976
vt 0.1774 0.9785
vt 0.1543 0.9619
vt 0.1322 0.9410
vt 0.1111 0.9157
vt 0.0914 0.8865
vt 0.0421 0.7778
vt 0.0732 0.8536
vt 0.0567 0.8172
vt 0.0295 0.7357
vt 0.0048 0.5975
vt 0.0190 0.6913
vt 0.0108 0.6451
vt 0.0012 0.5490
vt 0.0000 0.5000
vt 0.0012 0.4510
vt 0.0048 0.4025
vt 0.0108 0.3549
vt 0.0190 0.3087
vt 0.0295 0.2643
vt 0.0421 0.2222
vt 0.0567 0.1828
vt 0.1111 0.0843
vt 0.0732 0.1464
vt 0.0914 0.1135
vt 0.1322 0.0590
vt 0.1543 0.0381
vt 0.1774 0.0215
vt 0.2255 0.0024
vt 0.2500 0.0000
vt 0.2745 0.0024
vt 0.2988 0.0096
vt 0.3226 0.0215
vt 0.3457 0.0381
vt 0.3678 0.0590
vt 0.3889 0.0843
vt 0.4086 0.1135
vt 0.4579 0.2222
vt 0.4268 0.1464
vt 0.4433 0.1828
vt 0.4705 0.2643
vt 0.4810 0.3087
vt 0.4892 0.3549
vt 0.4952 0.4025
vt 0.4988 0.4510
vt 0.4952 0.5975
vt 0.5000 0.5000
vt 0.4988 0.5490
vt 0.4892 0.6451
vt 0.4810 0.6913
vt 0.4705 0.7357
vt 0.4433 0.8172
vt 0.4268 0.8536
vt 0.4086 0.8865
vt 0.3889 0.9157
vt 0.3678 0.9410
vt 0.3457 0.9619
vt 0.3226 0.9785
vt 0.7745 0.9976
vt 0.7255 0.9976
vt 0.7012 0.9904
vt 0.6774 0.9785
vt 0.6543 0.9619
vt 0.6322 0.9410
vt 0.6111 0.9157
vt 0.5914 0.8865
vt 0.5732 0.8536
vt 0.5567 0.8172
vt 0.5421 0.7778
vt 0.5295 0.7357
vt 0.5190 0.6913
vt 0.5108 0.6451
vt 0.5048 0.5975
vt 0.5000 0.5000
vt 0.5012 0.4510
vt 0.5048 0.4025
vt 0.5108 0.3549
vt 0.5190 0.3087
vt 0.5567 0.1828
vt 0.5295 0.2643
vt 0.5421 0.2222
vt 0.5732 0.1464
vt 0.5914 0.1135
vt 0.6111 0.0843
vt 0.6322 0.0590
vt 0.6543 0.0381
vt 0.6774 0.0215
vt 0.7012 0.0096
vt 0.8226 0.0215
vt 0.7745 0.0024
vt 0.7988 0.0096
vt 0.8457 0.0381
vt 0.9086 0.1135
vt 0.8678 0.0590
vt 0.8889 0.0843
vt 0.9268 0.1464
vt 0.9433 0.1828
vt 0.9579 0.2222
vt 0.9705 0.2643
vt 0.9810 0.3087
vt 0.9892 0.3549
vt 0.9952 0.4025
vt 1.0000 0.5000
vt 0.9988 0.5490
vt 0.9952 0.5975
vt 0.9892 0.6451
vt 0.9810 0.6913
vt 0.9705 0.7357
vt 0.9579 0.7778
vt 0.9433 0.8172
vt 0.9268 0.8536
vt 0.9086 0.8865
vt 0.8889 0.9157
vt 0.8678 0.9410
vt 0.8457 0.9619
vt 0.8226 0.9785
vt 0.7988 0.9904
vn 0.0000 0.6962 -0.7178
vn 0.0703 -0.6962 -0.7143
vn 0.0000 -0.6962 -0.7178
vn 0.0703 0.6962 -0.7143
vn 0.1400 -0.6962 -0.7040
vn 0.1400 0.6962 -0.7040
vn 0.2083 -0.6962 -0.6869
vn 0.2083 0.6962 -0.6869
vn 0.2747 -0.6962 -0.6632
vn 0.2747 0.6962 -0.6632
vn 0.3384 -0.6962 -0.6330
vn 0.3384 0.6962 -0.6330
vn 0.3988 -0.6962 -0.5968
vn 0.3988 0.6962 -0.5968
vn 0.4554 -0.6962 -0.5549
vn 0.4554 0.6962 -0.5549
vn 0.5076 -0.6962 -0.5076
vn 0.5076 0.6962 -0.5076
vn 0.5549 -0.6962 -0.4554
vn 0.5549 0.6962 -0.4554
vn 0.5968 -0.6962 -0.3988
vn 0.5968 0.6962 -0.3988
vn 0.6330 -0.6962 -0.3384
vn 0.6330 0.6962 -0.3384
vn 0.6632 -0.6962 -0.2747
vn 0.6632 0.6962 -0.2747
vn 0.6869 -0.6962 -0.2083
vn 0.6869 0.6962 -0.2083
vn 0.7040 -0.6962 -0.1400
vn 0.7040 0.6962 -0.1400
vn 0.7143 -0.6962 -0.0703
vn 0.7143 0.6962 -0.0703
vn 0.7178 -0.6962 0.0000
vn 0.7178 0.6962 0.0000
vn 0.7143 -0.6962 0.0703
vn 0.7143 0.6962 0.0703
vn 0.7040 -0.6962 0.1400
vn 0.7040 0.6962 0.1400
vn 0.6869 -0.6962 0.2083
vn 0.6869 0.6962 0.2083
vn 0.6632 -0.6962 0.2747
vn 0.6632 0.6962 0.2747
vn 0.6330 -0.6962 0.3384
vn 0.6330 0.6962 0.3384
vn 0.5968 -0.6962 0.3988
vn 0.5968 0.6962 0.3988
vn 0.5549 -0.6962 0.4554
vn 0.5549 0.6962 0.4554
vn 0.5076 -0.6962 0.5076
vn 0.5076 0.6962 0.5076
vn 0.4554 -0.6962 0.5549
vn 0.4554 0.6962 0.5549
vn 0.3988 -0.6962 0.5968
vn 0.3988 0.6962 0.5968
vn 0.3384 -0.6962 0.6330
vn 0.3384 0.6962 0.6330
vn 0.2747 -0.6962 0.6632
vn 0.2747 0.6962 0.6632
vn 0.2083 -0.6962 0.6869
vn 0.2083 0.6962 0.6869
vn 0.1400 -0.6962 0.7040
vn 0.1400 0.6962 0.7040
vn 0.0703 -0.6962 0.7143
vn 0.0703 0.6962 0.7143
vn 0.0000 -0.6962 0.7178
vn 0.0000 0.6962 0.7178
vn -0.0703 -0.6962 0.7143
vn -0.0703 0.6962 0.7143
vn -0.1400 -0.6962 0.7040
vn -0.1400 0.6962 0.7040
vn -0.2083 -0.6962 0.6869
vn -0.2083 0.6962 0.6869
vn -0.2747 -0.6962 0.6632
vn -0.2747 0.6962 0.6632
vn -0.3384 -0.6962 0.6330
vn -0.3384 0.6962 0.6330
vn -0.3988 -0.6962 0.5968
vn -0.3988 0.6962 0.5968
vn -0.4554 -0.6962 0.5549
vn -0.4554 0.6962 0.5549
vn -0.5076 -0.6962 0.5076
vn -0.5076 0.6962 0.5076
vn -0.5549 -0.6962 0.4554
vn -0.5549 0.6962 0.4554
vn -0.5968 -0.6962 0.3988
vn -0.5968 0.6962 0.3988
vn -0.6330 -0.6962 0.3384
vn -0.6330 0.6962 0.3384
vn -0.6632 -0.6962 0.2747
vn -0.6632 0.6962 0.2747
vn -0.6869 -0.6962 0.2083
vn -0.6869 0.6962 0.2083
vn -0.7040 -0.6962 0.1400
vn -0.7040 0.6962 0.1400
vn -0.7143 -0.6962 0.0703
vn -0.7143 0.6962 0.0703
vn -0.7178 -0.6962 0.0000
vn -0.7178 0.6962 0.0000
vn -0.7143 -0.6962 -0.0703
vn -0.7143 0.6962 -0.0703
vn -0.7040 -0.6962 -0.1400
vn -0.7040 0.6962 -0.1400
vn -0.6869 -0.6962 -0.2083
vn -0.6869 0.6962 -0.2083
vn -0.6632 -0.6962 -0.2747
vn -0.6632 0.6962 -0.2747
vn -0.6330 -0.6962 -0.3384
vn -0.6330 0.6962 -0.3384
vn -0.5968 -0.6962 -0.3988
vn -0.5968 0.6962 -0.3988
vn -0.5549 -0.6962 -0.4554
vn -0.5549 0.6962 -0.4554
vn -0.5076 -0.6962 -0.5076
vn -0.5076 0.6962 -0.5076
vn -0.4554 -0.6962 -0.5549
vn -0.4554 0.6962 -0.5549
vn -0.3988 -0.6962 -0.5968
vn -0.3988 0.6962 -0.5968
vn -0.3384 -0.6962 -0.6330
vn -0.3384 0.6962 -0.6330
vn -0.2747 -0.6962 -0.6632
vn -0.2747 0.6962 -0.6632
vn -0.2083 -0.6962 -0.6869
vn -0.2083 0.6962 -0.6869
vn -0.1400 -0.6962 -0.7040
vn -0.1400 0.6962 -0.7040
vn -0.0703 -0.6962 -0.7143
vn -0.0703 0.6962 -0.7143
usemtl None
s 1
f 2/1/1 3/2/2 1/3/3
f 4/4/4 5/5/5 3/2/2
f 6/6/6 7/7/7 5/5/5
f 8/8/8 9/9/9 7/7/7
f 10/10/10 11/11/11 9/9/9
f 12/12/12 13/13/13 11/11/11
f 14/14/14 15/15/15 13/13/13
f 16/16/16 17/17/17 15/15/15
f 18/18/18 19/19/19 17/17/17
f 20/20/20 21/21/21 19/19/19
f 22/22/22 23/23/23 21/21/21
f 24/24/24 25/25/25 23/23/23
f 26/26/26 27/27/27 25/25/25
f 28/28/28 29/29/29 27/27/27
f 30/30/30 31/31/31 29/29/29
f 32/32/32 33/33/33 31/31/31
f 34/34/34 35/35/35 33/33/33
f 36/36/36 37/37/37 35/35/35
f 38/38/38 39/39/39 37/37/37
f 40/40/40 41/41/41 39/39/39
f 42/42/42 43/43/43 41/41/41
f 44/44/44 45/45/45 43/43/43
f 46/46/46 47/47/47 45/45/45
f 48/48/48 49/49/49 47/47/47
f 50/50/50 51/51/51 49/49/49
f 52/52/52 53/53/53 51/51/51
f 54/54/54 55/55/55 53/53/53
f 56/56/56 57/57/57 55/55/55
f 58/58/58 59/59/59 57/57/57
f 60/60/60 61/61/61 59/59/59
f 62/62/62 63/63/63 61/61/61
f 64/64/64 65/65/65 63/63/63
f 66/66/66 67/67/67 65/65/65
f 68/68/68 69/69/69 67/67/67
f 70/70/70 71/71/71 69/69/69
f 72/72/72 73/73/73 71/71/71
f 74/74/74 75/75/75 73/73/73
f 76/76/76 77/77/77 75/75/75
f 78/78/78 79/79/79 77/77/77
f 80/80/80 81/81/81 79/79/79
f 82/82/82 83/83/83 81/81/81
f 84/84/84 85/85/85 83/83/83
f 86/86/86 87/87/87 85/85/85
f 88/88/88 89/89/89 87/87/87
f 90/90/90 91/91/91 89/89/89
f 92/92/92 93/93/93 91/91/91
f 94/94/94 95/95/95 93/93/93
f 96/96/96 97/97/97 95/95/95
f 98/98/98 99/99/99 97/97/97
f 100/100/100 101/101/101 99/99/99
f 102/102/102 103/103/103 101/101/101
f 104/104/104 105/105/105 103/103/103
f 106/106/106 107/107/107 105/105/105
f 108/108/108 109/109/109 107/107/107
f 110/110/110 111/111/111 109/109/109
f 112/112/112 113/113/113 111/111/111
f 114/114/114 115/115/115 113/113/113
f 116/116/116 117/117/117 115/115/115
f 118/118/118 119/119/119 117/117/117
f 120/120/120 121/121/121 119/119/119
f 122/122/122 123/123/123 121/121/121
f 124/124/124 125/125/125 123/123/123
f 70/126/70 22/127/22 6/128/6
f 126/129/126 127/130/127 125/125/125
f 128/131/128 1/3/3 127/130/127
f 63/132/63 95/133/95 31/134/31
f 2/1/1 4/4/4 3/2/2
f 4/4/4 6/6/6 5/5/5
f 6/6/6 8/8/8 7/7/7
f 8/8/8 10/10/10 9/9/9
f 10/10/10 12/12/12 11/11/11
f 12/12/12 14/14/14 13/13/13
f 14/14/14 16/16/16 15/15/15
f 16/16/16 18/18/18 17/17/17
f 18/18/18 20/20/20 19/19/19
f 20/20/20 22/22/22 21/21/21
f 22/22/22 24/24/24 23/23/23
f 24/24/24 26/26/26 25/25/25
f 26/26/26 28/28/28 27/27/27
f 28/28/28 30/30/30 29/29/29
f 30/30/30 32/32/32 31/31/31
f 32/32/32 34/34/34 33/33/33
f 34/34/34 36/36/36 35/35/35
f 36/36/36 38/38/38 37/37/37
f 38/38/38 40/40/40 39/39/39
f 40/40/40 42/42/42 41/41/41
f 42/42/42 44/44/44 43/43/43
f 44/44/44 46/46/46 45/45/45
f 46/46/46 48/48/48 47/47/47
f 48/48/48 50/50/50 49/49/49
f 50/50/50 52/52/52 51/51/51
f 52/52/52 54/54/54 53/53/53
f 54/54/54 56/56/56 55/55/55
f 56/56/56 58/58/58 57/57/57
f 58/58/58 60/60/60 59/59/59
f 60/60/60 62/62/62 61/61/61
f 62/62/62 64/64/64 63/63/63
f 64/64/64 66/66/66 65/65/65
f 66/66/66 68/68/68 67/67/67
f 68/68/68 70/70/70 69/69/69
f 70/70/70 72/72/72 71/71/71
f 72/72/72 74/74/74 73/73/73
f 74/74/74 76/76/76 75/75/75
f 76/76/76 78/78/78 77/77/77
f 78/78/78 80/80/80 79/79/79
f 80/80/80 82/82/82 81/81/81
f 82/82/82 84/84/84 83/83/83
f 84/84/84 86/86/86 85/85/85
f 86/86/86 88/88/88 87/87/87
f 88/88/88 90/90/90 89/89/89
f 90/90/90 92/92/92 91/91/91
f 92/92/92 94/94/94 93/93/93
f 94/94/94 96/96/96 95/95/95
f 96/96/96 98/98/98 97/97/97
f 98/98/98 100/100/100 99/99/99
f 100/100/100 102/102/102 101/101/101
f 102/102/102 104/104/104 103/103/103
f 104/104/104 106/106/106 105/105/105
f 106/106/106 108/108/108 107/107/107
f 108/108/108 110/110/110 109/109/109
f 110/110/110 112/112/112 111/111/111
f 112/112/112 114/114/114 113/113/113
f 114/114/114 116/116/116 115/115/115
f 116/116/116 118/118/118 117/117/117
f 118/118/118 120/120/120 119/119/119
f 120/120/120 122/122/122 121/121/121
f 122/122/122 124/124/124 123/123/123
f 124/124/124 126/129/126 125/125/125
f 6/128/6 4/135/4 126/136/126
f 2/137/1 128/138/128 126/136/126
f 126/136/126 124/139/124 122/140/122
f 122/140/122 120/141/120 126/136/126
f 118/142/118 116/143/116 110/144/110
f 114/145/114 112/146/112 110/144/110
f 110/144/110 108/147/108 102/148/102
f 106/149/106 104/150/104 102/148/102
f 102/148/102 100/151/100 98/152/98
f 98/152/98 96/153/96 102/148/102
f 94/154/94 92/155/92 90/156/90
f 90/156/90 88/157/88 86/158/86
f 86/158/86 84/159/84 78/160/78
f 82/161/82 80/162/80 78/160/78
f 78/160/78 76/163/76 74/164/74
f 74/164/74 72/165/72 70/126/70
f 70/126/70 68/166/68 66/167/66
f 66/167/66 64/168/64 62/169/62
f 62/169/62 60/170/60 58/171/58
f 58/171/58 56/172/56 54/173/54
f 54/173/54 52/174/52 46/175/46
f 50/176/50 48/177/48 46/175/46
f 46/175/46 44/178/44 42/179/42
f 42/179/42 40/180/40 38/181/38
f 38/181/38 36/182/36 30/183/30
f 34/184/34 32/185/32 30/183/30
f 30/183/30 28/186/28 26/187/26
f 26/187/26 24/188/24 30/183/30
f 22/127/22 20/189/20 18/190/18
f 18/190/18 16/191/16 14/192/14
f 14/192/14 12/193/12 6/128/6
f 10/194/10 8/195/8 6/128/6
f 4/135/4 2/137/1 126/136/126
f 126/136/126 120/141/120 118/142/118
f 116/143/116 114/145/114 110/144/110
f 108/147/108 106/149/106 102/148/102
f 102/148/102 96/153/96 94/154/94
f 94/154/94 90/156/90 102/148/102
f 84/159/84 82/161/82 78/160/78
f 78/160/78 74/164/74 86/158/86
f 70/126/70 66/167/66 62/169/62
f 62/169/62 58/171/58 54/173/54
f 52/174/52 50/176/50 46/175/46
f 46/175/46 42/179/42 54/173/54
f 36/182/36 34/184/34 30/183/30
f 30/183/30 24/188/24 22/127/22
f 22/127/22 18/190/18 14/192/14
f 12/193/12 10/194/10 6/128/6
f 6/128/6 126/136/126 118/142/118
f 118/142/118 110/144/110 102/148/102
f 102/148/102 90/156/90 86/158/86
f 86/158/86 74/164/74 70/126/70
f 70/126/70 62/169/62 38/181/38
f 54/173/54 42/179/42 38/181/38
f 38/181/38 30/183/30 22/127/22
f 22/127/22 14/192/14 6/128/6
f 6/128/6 118/142/118 102/148/102
f 102/148/102 86/158/86 70/126/70
f 62/169/62 54/173/54 38/181/38
f 38/181/38 22/127/22 70/126/70
f 6/128/6 102/148/102 70/126/70
f 126/129/126 128/131/128 127/130/127
f 128/131/128 2/1/1 1/3/3
f 127/196/127 1/3/3 3/197/2
f 3/197/2 5/198/5 7/199/7
f 7/199/7 9/200/9 11/201/11
f 11/201/11 13/202/13 15/203/15
f 15/203/15 17/204/17 19/205/19
f 19/205/19 21/206/21 15/203/15
f 23/207/23 25/208/25 27/209/27
f 27/209/27 29/210/29 23/207/23
f 31/134/31 33/211/33 35/212/35
f 35/212/35 37/213/37 39/214/39
f 39/214/39 41/215/41 47/216/47
f 43/217/43 45/218/45 47/216/47
f 47/216/47 49/219/49 51/220/51
f 51/220/51 53/221/53 55/222/55
f 55/222/55 57/223/57 59/224/59
f 59/224/59 61/225/61 55/222/55
f 63/132/63 65/65/65 71/226/71
f 67/227/67 69/228/69 71/226/71
f 71/226/71 73/229/73 79/230/79
f 75/231/75 77/232/77 79/230/79
f 79/230/79 81/233/81 83/234/83
f 83/234/83 85/235/85 79/230/79
f 87/236/87 89/237/89 91/238/91
f 91/238/91 93/239/93 95/133/95
f 95/133/95 97/240/97 99/241/99
f 99/241/99 101/242/101 95/133/95
f 103/243/103 105/244/105 107/245/107
f 107/245/107 109/246/109 111/247/111
f 111/247/111 113/248/113 115/249/115
f 115/249/115 117/250/117 119/251/119
f 119/251/119 121/252/121 123/253/123
f 123/253/123 125/254/125 119/251/119
f 127/196/127 3/197/2 7/199/7
f 7/199/7 11/201/11 127/196/127
f 15/203/15 21/206/21 23/207/23
f 23/207/23 29/210/29 31/134/31
f 31/134/31 35/212/35 39/214/39
f 41/215/41 43/217/43 47/216/47
f 47/216/47 51/220/51 63/132/63
f 55/222/55 61/225/61 63/132/63
f 65/65/65 67/227/67 71/226/71
f 73/229/73 75/231/75 79/230/79
f 79/230/79 85/235/85 87/236/87
f 87/236/87 91/238/91 79/230/79
f 95/133/95 101/242/101 103/243/103
f 103/243/103 107/245/107 111/247/111
f 111/247/111 115/249/115 127/196/127
f 119/251/119 125/254/125 127/196/127
f 127/196/127 11/201/11 15/203/15
f 15/203/15 23/207/23 31/134/31
f 31/134/31 39/214/39 47/216/47
f 51/220/51 55/222/55 63/132/63
f 63/132/63 71/226/71 95/133/95
f 79/230/79 91/238/91 95/133/95
f 95/133/95 103/243/103 127/196/127
f 115/249/115 119/251/119 127/196/127
f 127/196/127 15/203/15 31/134/31
f 31/134/31 47/216/47 63/132/63
f 71/226/71 79/230/79 95/133/95
f 103/243/103 111/247/111 127/196/127
f 127/196/127 31/134/31 95/133/95
